<svg width="901" height="113" viewBox="0 0 901 113" fill="none" xmlns="http://www.w3.org/2000/svg">
<g clip-path="url(#clip0_1170_54)">
<path d="M8.09998 86.9H16.4L24.3 112.8H17L15.7 107.3H8.39997L7.09998 112.8H0.0999756L7.99998 86.9H8.09998ZM9.69997 102.1H14.5L14.1 100.3C13.5 97.8 12.8 94.7 12.2 92.1H12C11.4 94.7 10.8 97.8 10.2 100.3L9.79998 102.1H9.69997Z" fill="#ED1C24"/>
<path d="M33.1 86.9H40.8C48.7 86.9 54.1 90.6 54.1 99.8C54.1 109 48.7 112.9 41.2 112.9H33.1V87V86.9ZM40.4 107.4C44.2 107.4 47.1 105.9 47.1 99.8C47.1 93.7 44.1 92.5 40.4 92.5H40V107.4H40.4Z" fill="#ED1C24"/>
<path d="M65.1 86.9H72.8C80.7 86.9 86.1 90.6 86.1 99.8C86.1 109 80.7 112.9 73.2 112.9H65.1V87V86.9ZM72.4 107.4C76.2 107.4 79.1 105.9 79.1 99.8C79.1 93.7 76.1 92.5 72.4 92.5H72V107.4H72.4Z" fill="#ED1C24"/>
<path d="M97.1 86.9H104V112.8H97.1V86.9Z" fill="#ED1C24"/>
<path d="M121 92.7H114.1V87H134.7V92.7H127.8V112.9H120.9V92.7H121Z" fill="#ED1C24"/>
<path d="M144.9 86.9H151.8V112.8H144.9V86.9Z" fill="#ED1C24"/>
<path d="M160.7 86.9H168L170.6 98.2C171.2 101 171.8 103.6 172.5 106.4H172.7C173.4 103.6 173.9 100.9 174.6 98.2L177.4 86.9H184.4L176.6 112.8H168.3L160.8 86.9H160.7Z" fill="#ED1C24"/>
<path d="M193.1 86.9H209.9V92.6H200V96.7H208.5V102.4H200V107H210.3V112.7H193.1V86.8V86.9Z" fill="#ED1C24"/>
<path d="M236 86.9H243.3L247.2 97.5C247.7 98.9 248.1 100.5 248.6 102H248.8C249.3 100.5 249.7 98.9 250.2 97.5L254 86.9H261.3V112.8H255.1V105.1C255.1 102.5 255.7 97.7 256 95H255.8L253.6 102L250.4 110.6H246.7L243.5 102L241.4 95H241.2C241.5 97.6 242.1 102.4 242.1 105.1V112.8H236V86.9Z" fill="#ED1C24"/>
<path d="M278 86.9H286.3L294.2 112.8H286.9L285.6 107.3H278.3L277 112.8H270L277.9 86.9H278ZM279.6 102.1H284.4L284 100.3C283.4 97.8 282.7 94.7 282.1 92.1H281.9C281.3 94.7 280.7 97.8 280.1 100.3L279.7 102.1H279.6Z" fill="#ED1C24"/>
<path d="M303.1 86.9H310.1L315.8 98.5C316.7 100.3 317.5 102.3 318.3 104.3H318.5C318.2 101.5 317.6 97.6 317.6 94.4V86.9H324.1V112.8H317.1L311.4 101.2C310.5 99.4 309.7 97.4 308.9 95.4H308.7C309 98.4 309.6 102.1 309.6 105.3V112.8H303.1V86.9Z" fill="#ED1C24"/>
<path d="M336.1 100.3V86.9H343V101.1C343 105.7 344.2 107.4 346.9 107.4C349.6 107.4 350.9 105.7 350.9 101.1V86.9H357.5V100.3C357.5 109.2 354.1 113.3 346.9 113.3C339.7 113.3 336.1 109.1 336.1 100.3Z" fill="#ED1C24"/>
<path d="M369.4 86.9H386.3V92.6H376.2V97.5H384.8V103.2H376.2V112.7H369.3V86.8L369.4 86.9Z" fill="#ED1C24"/>
<path d="M400.2 86.9H408.5L416.4 112.8H409.1L407.8 107.3H400.5L399.2 112.8H392.2L400.1 86.9H400.2ZM401.9 102.1H406.7L406.3 100.3C405.7 97.8 405 94.7 404.4 92.1H404.2C403.6 94.7 403 97.8 402.4 100.3L402 102.1H401.9Z" fill="#ED1C24"/>
<path d="M423.8 100.1C423.8 91.4 429.8 86.5 436.3 86.5C442.8 86.5 442.5 88 444.4 89.9L440.8 94.1C439.5 93 438.2 92.4 436.5 92.4C433.5 92.4 430.8 95.2 430.8 99.9C430.8 104.6 433 107.5 436.4 107.5C439.8 107.5 440 106.7 441.1 105.5L444.7 109.6C442.4 112.2 439.4 113.4 436.2 113.4C429.6 113.4 423.8 109 423.8 100.1Z" fill="#ED1C24"/>
<path d="M459.2 92.7H452.3V87H472.9V92.7H466V112.9H459.1V92.7H459.2Z" fill="#ED1C24"/>
<path d="M482.9 100.3V86.9H489.8V101.1C489.8 105.7 491 107.4 493.7 107.4C496.4 107.4 497.7 105.7 497.7 101.1V86.9H504.3V100.3C504.3 109.2 500.9 113.3 493.7 113.3C486.5 113.3 482.9 109.1 482.9 100.3Z" fill="#ED1C24"/>
<path d="M516.3 86.9H526.1C531.7 86.9 536.5 88.8 536.5 95.3C536.5 101.8 534.8 101.4 532.3 102.8L537.9 112.9H530.2L525.7 104.2H523.1V112.9H516.2V87L516.3 86.9ZM525.6 98.7C528.3 98.7 529.7 97.5 529.7 95.3C529.7 93.1 528.3 92.3 525.6 92.3H523.1V98.7H525.6Z" fill="#ED1C24"/>
<path d="M547.8 86.9H554.7V112.8H547.8V86.9Z" fill="#ED1C24"/>
<path d="M566.8 86.9H573.8L579.5 98.5C580.4 100.3 581.2 102.3 582 104.3H582.2C581.9 101.5 581.3 97.6 581.3 94.4V86.9H587.8V112.8H580.8L575.1 101.2C574.2 99.4 573.4 97.4 572.6 95.4H572.4C572.7 98.4 573.3 102.1 573.3 105.3V112.8H566.8V86.9Z" fill="#ED1C24"/>
<path d="M598.9 100.1C598.9 91.4 604.9 86.5 611.8 86.5C618.7 86.5 618.4 88 620.3 89.9L616.7 94.1C615.4 93 614.1 92.4 612.1 92.4C608.6 92.4 606 95.2 606 99.9C606 104.6 608.2 107.5 612.8 107.5C617.4 107.5 614.3 107.3 614.8 107V103.4H611V97.8H620.9V110.2C619.1 112 615.8 113.4 612.1 113.4C604.8 113.4 599 109 599 100.1H598.9Z" fill="#ED1C24"/>
<path d="M646.5 86.9H655.8C661.2 86.9 665.6 88.3 665.6 93.4C665.6 98.5 664.3 98.2 662.3 99V99.2C664.8 99.9 666.8 101.8 666.8 105.3C666.8 110.6 662.2 113 656.6 113H646.5V87.1V86.9ZM655.7 97.1C657.9 97.1 659 96.1 659 94.5C659 92.9 658 92.3 655.7 92.3H653.4V97.2H655.7V97.1ZM656.1 107.6C658.8 107.6 660.1 106.6 660.1 104.7C660.1 102.8 658.8 102.1 656.1 102.1H653.3V107.6H656.1Z" fill="#ED1C24"/>
<path d="M677.1 100.3V86.9H684V101.1C684 105.7 685.2 107.4 687.9 107.4C690.6 107.4 691.9 105.7 691.9 101.1V86.9H698.5V100.3C698.5 109.2 695.1 113.3 687.9 113.3C680.7 113.3 677.1 109.1 677.1 100.3Z" fill="#ED1C24"/>
<path d="M708.5 109.6L712.1 105.1C713.9 106.6 716.4 107.4 718.5 107.4C720.6 107.4 721.5 106.7 721.5 105.6C721.5 104.5 720.2 104 718 103.1L714.8 101.7C712 100.6 709.6 98.2 709.6 94.5C709.6 90.8 713.6 86.4 719.3 86.4C725 86.4 725.6 87.5 727.9 89.7L724.3 94.2C722.5 93 720.8 92.4 719.3 92.4C717.8 92.4 716.6 93 716.6 94.2C716.6 95.4 718.1 95.9 720.4 96.8L723.6 98C726.8 99.3 728.7 101.5 728.7 105.1C728.7 108.7 725 113.4 718.6 113.4C712.2 113.4 711.6 112.3 708.8 109.6H708.5Z" fill="#ED1C24"/>
<path d="M738.9 86.9H745.8V112.8H738.9V86.9Z" fill="#ED1C24"/>
<path d="M757.9 86.9H764.9L770.6 98.5C771.5 100.3 772.3 102.3 773.1 104.3H773.3C773 101.5 772.4 97.6 772.4 94.4V86.9H778.9V112.8H771.9L766.2 101.2C765.3 99.4 764.5 97.4 763.7 95.4H763.5C763.8 98.4 764.4 102.1 764.4 105.3V112.8H757.9V86.9Z" fill="#ED1C24"/>
<path d="M791.1 86.9H807.9V92.6H798V96.7H806.5V102.4H798V107H808.3V112.7H791.1V86.8V86.9Z" fill="#ED1C24"/>
<path d="M818.1 109.6L821.7 105.1C823.5 106.6 826 107.4 828.1 107.4C830.2 107.4 831.1 106.7 831.1 105.6C831.1 104.5 829.8 104 827.6 103.1L824.4 101.7C821.6 100.6 819.2 98.2 819.2 94.5C819.2 90.8 823.2 86.4 828.9 86.4C834.6 86.4 835.2 87.5 837.5 89.7L833.9 94.2C832.1 93 830.4 92.4 828.9 92.4C827.4 92.4 826.2 93 826.2 94.2C826.2 95.4 827.7 95.9 830 96.8L833.2 98C836.4 99.3 838.3 101.5 838.3 105.1C838.3 108.7 834.6 113.4 828.2 113.4C821.8 113.4 821.2 112.3 818.4 109.6H818.1Z" fill="#ED1C24"/>
<path d="M846.2 109.6L849.8 105.1C851.6 106.6 854.1 107.4 856.2 107.4C858.3 107.4 859.2 106.7 859.2 105.6C859.2 104.5 857.9 104 855.7 103.1L852.5 101.7C849.7 100.6 847.3 98.2 847.3 94.5C847.3 90.8 851.3 86.4 857 86.4C862.7 86.4 863.3 87.5 865.6 89.7L862 94.2C860.2 93 858.5 92.4 857 92.4C855.5 92.4 854.3 93 854.3 94.2C854.3 95.4 855.8 95.9 858.1 96.8L861.3 98C864.5 99.3 866.4 101.5 866.4 105.1C866.4 108.7 862.7 113.4 856.3 113.4C849.9 113.4 849.3 112.3 846.5 109.6H846.2Z" fill="#ED1C24"/>
<path fill-rule="evenodd" clip-rule="evenodd" d="M0.699977 24.4H20.4V19.1C20.4 17.6 20.7 16 23 16H54.9C56.7 16 59 16 59 19.4V24.4C59 25.4 58.2 26.7 54.8 26.7H31.3V42.5H55.9C55.9 42.5 60.1 42.8 60.1 46.7V49.5C60.1 51.3 59.4 53.4 56.4 53.4H23.6C23.6 53.4 20.3 53.4 20.3 50.6V44.4H0.399976V55.9C0.399976 55.9 -1.20002 70.2 21 70.2H67.1C69.7 70.2 79.1 69.1 79.1 58.5V43.7C79.1 40.1 75.8 34.7 69.2 34.7C75.9 32.9 78.4 27.1 78.4 24.7C78.4 21.2 78.4 15.4 78.4 12C78.4 8.59999 76.9 0.799994 67.1 0.799994H12.1C5.09998 0.799994 0.599976 4.39999 0.599976 12C0.599976 22.8 0.599976 24.5 0.599976 24.5" fill="black"/>
<path fill-rule="evenodd" clip-rule="evenodd" d="M153.5 42C153.5 47.5 149.3 52 144.1 52H106.4V18.2H144.1C149.3 18.2 153.5 22.7 153.5 28.2V42ZM154.1 0.799994H86.6V70.2H154.1C164.6 70.2 173.2 61.1 173.2 49.8V21.1C173.2 9.89999 164.7 0.699993 154.1 0.699993V0.799994Z" fill="black"/>
<path fill-rule="evenodd" clip-rule="evenodd" d="M236.7 28.7C236.7 31.9 234.3 34.5 231.2 34.5H200.4V16H231.2C234.2 16 236.7 18.6 236.7 21.8V28.7ZM241.9 0.799994H181.3V70.2H200.4V51.4H241.9C249.6 51.4 255.9 44.8 255.9 36.6V15.7C255.9 7.49999 249.6 0.899994 241.9 0.899994V0.799994Z" fill="black"/>
<path fill-rule="evenodd" clip-rule="evenodd" d="M317.2 34.5H283.3V16H317.2C320.2 16 322.7 18.6 322.7 21.8V28.7C322.7 31.9 320.2 34.5 317.2 34.5ZM335.5 40.5C335.2 40.3 341.6 37.4 341.9 32.5V15.6C341.9 7.39999 335.6 0.799994 327.8 0.799994H263.9V70.1H283.2V51.3H319.5C321.4 53.2 321.4 56 321.4 56V70.1H340.9C340.9 70.1 340.6 54.2 340.6 48.4C340.6 42.6 337.8 41.7 335.4 40.5" fill="black"/>
<path fill-rule="evenodd" clip-rule="evenodd" d="M350.1 70.1H370.4V0.799994H350.1V70.2V70.1Z" fill="black"/>
<path fill-rule="evenodd" clip-rule="evenodd" d="M449 0.799994V51L414.7 0.799994H378.6V70.2H399.7V16L434.5 70.2H470.1V0.799994H449Z" fill="black"/>
<path fill-rule="evenodd" clip-rule="evenodd" d="M846.9 0.799994H830.7L811.6 42.4L792.5 0.799994H757.2V70.2H777.9V16.1L804 70.2H819.6L845.4 16.1V70.2H866.1V0.799994H847H846.9Z" fill="black"/>
<path fill-rule="evenodd" clip-rule="evenodd" d="M552.3 0.799994H474.3V17.4H503.1V70.2H523.5V17.4H552.3V0.799994Z" fill="black"/>
<path fill-rule="evenodd" clip-rule="evenodd" d="M542.5 70.1H562.9V49.7H542.5V70.1Z" fill="#ED1C24"/>
<path fill-rule="evenodd" clip-rule="evenodd" d="M728.8 44.4C728.8 49.2 725.1 53.1 720.5 53.1H688.5C683.9 53.1 680.2 49.2 680.2 44.4V26.2C680.2 21.4 683.9 17.5 688.5 17.5H720.5C725.1 17.5 728.8 21.4 728.8 26.2V44.4ZM729.9 0.799994H679.7C669.2 0.799994 660.7 9.7 660.7 20.6V50.4C660.7 61.3 669.2 70.2 679.7 70.2H729.9C740.4 70.2 748.9 61.3 748.9 50.4V20.6C748.9 9.7 740.4 0.799994 729.9 0.799994Z" fill="black"/>
<path fill-rule="evenodd" clip-rule="evenodd" d="M632.6 42.9V44.4C632.6 49.2 628.9 53.1 624.3 53.1H598.9C594.3 53.1 590.6 49.2 590.6 44.4V26.2C590.6 21.4 594.3 17.5 598.9 17.5H624.3C628.8 17.5 632.5 21.3 632.6 25.9H652.6V20.5C652.6 9.59999 644.1 0.699993 633.7 0.699993H590.2C579.7 0.699993 571.3 9.59999 571.3 20.5V50.3C571.3 61.2 579.8 70.1 590.2 70.1H633.7C644.2 70.1 652.6 61.2 652.6 50.3V42.8H632.6V42.9Z" fill="black"/>
<path d="M876.6 2.99999H872.1V0.599995H883.8V2.99999H879.3V16.1H876.5V2.99999H876.6Z" fill="black"/>
<path d="M886.4 0.699993H889.7L892.4 8.29999C892.7 9.29999 893 10.2 893.3 11.3C893.6 10.2 893.8 9.29999 894.2 8.29999L896.9 0.699993H900.2V16.2H897.6V9.09999C897.6 7.59999 897.8 5.49999 898 4.09999L896.8 7.79999L894.3 14.7H892.5L890 7.79999L888.8 4.09999C889 5.49999 889.2 7.69999 889.2 9.09999V16.2H886.6V0.699993H886.4Z" fill="black"/>
</g>
<defs>
<clipPath id="clip0_1170_54">
<rect width="900" height="113" fill="white" transform="translate(0.149994)"/>
</clipPath>
</defs>
</svg>
