<svg width="96" height="22" viewBox="0 0 96 22" fill="none" xmlns="http://www.w3.org/2000/svg">
<g clip-path="url(#clip0_305_231)">
<path d="M28.7747 7.84586L28.1367 6.79146H24.3409L23.703 7.84586H22.2676L25.3616 2.60488H27.0841L30.1782 7.84586H28.7747ZM26.2548 3.59725L25.0108 5.67502H27.4669L26.2548 3.59725Z" fill="#9F1F22"/>
<path d="M38.0249 5.20986C38.0341 5.56331 37.9577 5.91393 37.8016 6.23324C37.6354 6.55142 37.408 6.83563 37.1316 7.07054C36.8263 7.3284 36.4673 7.51885 36.079 7.62876C35.6146 7.77089 35.1305 7.84407 34.6437 7.84586H30.9116V2.60488H34.6437C35.1317 2.59125 35.6182 2.66483 36.079 2.82196C36.4673 2.93188 36.8263 3.12232 37.1316 3.38017C37.408 3.61508 37.6354 3.89931 37.8016 4.21749C37.9395 4.53168 38.0153 4.86836 38.0249 5.20986ZM36.5893 5.20986C36.5965 5.00631 36.5526 4.80412 36.4619 4.62064C36.3855 4.42316 36.2527 4.25101 36.079 4.12445C35.8856 3.97972 35.6704 3.86468 35.4412 3.78332C35.1535 3.69001 34.8509 3.64798 34.5479 3.65927H32.2194V6.72942H34.5479C34.8509 6.74073 35.1535 6.69871 35.4412 6.60538C35.6728 6.52951 35.8889 6.41398 36.079 6.26425C36.241 6.12676 36.3715 5.95772 36.4619 5.76808C36.5595 5.59814 36.604 5.40406 36.5893 5.20986Z" fill="#9F1F22"/>
<path d="M46.0634 5.20986C46.073 5.56331 45.9963 5.91393 45.8402 6.23324C45.674 6.55142 45.4466 6.83563 45.1705 7.07054C44.8652 7.3284 44.5061 7.51885 44.1179 7.62876C43.6532 7.77089 43.1694 7.84407 42.6823 7.84586H38.9502V2.60488H42.6823C43.1706 2.59125 43.657 2.66483 44.1179 2.82196C44.5061 2.93188 44.8652 3.12232 45.1705 3.38017C45.4466 3.61508 45.674 3.89931 45.8402 4.21749C45.993 4.52687 46.0694 4.86668 46.0634 5.20986ZM44.6601 5.20986C44.667 5.00631 44.6234 4.80412 44.5324 4.62064C44.456 4.42316 44.3232 4.25101 44.1498 4.12445C43.9561 3.97972 43.7409 3.86468 43.5117 3.78332C43.224 3.69001 42.9217 3.64798 42.6184 3.65927H40.2899V6.72942H42.6184C42.9217 6.74073 43.224 6.69871 43.5117 6.60538C43.7436 6.52951 43.9597 6.41398 44.1498 6.26425C44.3115 6.12676 44.442 5.95772 44.5324 5.76808C44.6154 5.59298 44.6589 5.40263 44.6601 5.20986Z" fill="#9F1F22"/>
<path d="M47.0205 7.84586V2.60488H48.3919V7.84586H47.0205Z" fill="#9F1F22"/>
<path d="M52.953 3.7213V7.84586H51.6133V3.7213H49.189V2.60488H55.377V3.7213H52.953Z" fill="#9F1F22"/>
<path d="M56.1748 7.84586V2.60488H57.5462V7.84586H56.1748Z" fill="#9F1F22"/>
<path d="M62.7461 7.84586H61.0237L58.2168 2.60488H59.7159L61.885 6.72942L64.0539 2.60488H65.5533L62.7461 7.84586Z" fill="#9F1F22"/>
<path d="M66.2227 7.84586V2.60488H72.7298V3.7213H67.5943V4.65165H72.1239V5.67502H67.5943V6.69841H72.9214V7.81485H66.2227V7.84586Z" fill="#9F1F22"/>
<path d="M7.33931 15.0095V10.8229L5.32973 15.0095H4.02193L1.98049 10.7919V15.0095H0.608887V9.76855H2.87362L4.65989 13.614L6.44617 9.76855H8.67899V15.0095H7.33931Z" fill="#9F1F22"/>
<path d="M15.8558 15.0095L15.2178 13.9551H11.422L10.784 15.0095H9.34863L12.4427 9.76855H14.1652L17.2592 15.0095H15.8558ZM13.3358 10.7609L12.0918 12.8387H14.5799L13.3358 10.7609Z" fill="#9F1F22"/>
<path d="M23.2246 15.0095L19.333 11.3501V15.0095H17.9614V9.76855H19.333L23.2246 13.4279V9.76855H24.5961V15.0095H23.2246Z" fill="#9F1F22"/>
<path d="M32.1877 12.4045C32.194 12.7777 32.1179 13.1478 31.9645 13.4899C31.812 13.8261 31.5953 14.1312 31.3264 14.3893C31.0285 14.6557 30.6826 14.8659 30.3058 15.0095C29.8783 15.1669 29.423 15.2407 28.9661 15.2266C28.5095 15.2354 28.0553 15.1617 27.6264 15.0095C27.2473 14.8703 26.9004 14.6595 26.6056 14.3893C26.3298 14.1369 26.1123 13.8303 25.9677 13.4899C25.8114 13.1487 25.7351 12.778 25.7444 12.4045V9.76855H27.116V12.4045C27.1119 12.6278 27.1553 12.8496 27.2436 13.0558C27.3102 13.2587 27.4313 13.4407 27.5945 13.583C27.7595 13.7417 27.9545 13.8681 28.1686 13.9551C28.7084 14.1205 29.2875 14.1205 29.8273 13.9551C30.0415 13.8681 30.2364 13.7417 30.4014 13.583C30.5474 13.4272 30.6659 13.249 30.7525 13.0558C30.8283 12.8462 30.8712 12.6266 30.8799 12.4045V9.76855H32.2516V12.4045H32.1877Z" fill="#9F1F22"/>
<path d="M34.7076 10.916V12.0944H39.1733V13.2108H34.7076V15.0095H33.3359V9.76855H39.7795V10.885L34.7076 10.916Z" fill="#9F1F22"/>
<path d="M46.1272 15.0095L45.4891 13.9551H41.6934L41.0554 15.0095H39.6201L42.7141 9.76855H44.4365L47.5308 15.0095H46.1272ZM43.6074 10.7609L42.3632 12.8387H44.8194L43.6074 10.7609Z" fill="#9F1F22"/>
<path d="M54.6435 13.6449C54.5015 13.8721 54.3299 14.0806 54.1332 14.2652C53.9072 14.4551 53.6613 14.6214 53.3996 14.7613C53.1002 14.9152 52.777 15.02 52.4428 15.0715C52.0646 15.1468 51.6802 15.1883 51.2943 15.1955C50.7541 15.2084 50.2154 15.135 49.6994 14.9784C49.2655 14.8546 48.8635 14.6432 48.5193 14.3582C48.2057 14.1183 47.9544 13.8103 47.7855 13.4588C47.6189 13.1199 47.5318 12.7492 47.5303 12.3734C47.5353 11.9981 47.6222 11.6282 47.7855 11.288C47.963 10.9418 48.2128 10.6355 48.5193 10.3887C48.8712 10.115 49.2711 9.90497 49.6994 9.76846C50.2154 9.61186 50.7541 9.53854 51.2943 9.5514C51.6686 9.54883 52.0422 9.57996 52.4108 9.64443C52.7311 9.71008 53.0417 9.81424 53.3357 9.95454C53.6031 10.0728 53.8505 10.2296 54.0693 10.4197C54.2743 10.585 54.4471 10.7845 54.5797 11.0089L53.3677 11.5982C53.288 11.4633 53.1793 11.3469 53.0486 11.257C52.914 11.1288 52.7502 11.0332 52.5702 10.9779C52.3804 10.8835 52.1753 10.8206 51.9643 10.7918C51.7235 10.7391 51.477 10.7183 51.2305 10.7298C50.8962 10.7191 50.5622 10.7609 50.2417 10.8539C49.9928 10.9358 49.7567 11.0506 49.54 11.195C49.3583 11.334 49.2156 11.5154 49.1252 11.7222C49.041 11.9187 48.9978 12.1295 48.9978 12.3424C48.9978 12.5554 49.041 12.7661 49.1252 12.9627C49.224 13.1647 49.3654 13.3443 49.54 13.4899C49.7472 13.6563 49.9856 13.7827 50.2417 13.862C50.5622 13.955 50.8962 13.9968 51.2305 13.9861C51.4889 13.9896 51.7465 13.9583 51.996 13.893C52.215 13.8395 52.4284 13.7668 52.6341 13.6759C52.8098 13.5984 52.9713 13.4936 53.1125 13.3658C53.228 13.2575 53.325 13.1319 53.3996 12.9937L54.6435 13.6449Z" fill="#9F1F22"/>
<path d="M59.0458 10.916V15.0406H57.706V10.916H55.2817V9.7996H61.4698V10.916H59.0458Z" fill="#9F1F22"/>
<path d="M68.6469 12.4045C68.6532 12.7777 68.5768 13.1478 68.4237 13.4899C68.2709 13.8261 68.0545 14.1312 67.7856 14.3893C67.4877 14.6557 67.1415 14.8659 66.7649 15.0095C66.3372 15.1669 65.8821 15.2407 65.4252 15.2266C64.9685 15.2379 64.5137 15.1643 64.0854 15.0095C63.7064 14.8703 63.3596 14.6595 63.0647 14.3893C62.7889 14.1369 62.5714 13.8303 62.4266 13.4899C62.2705 13.1487 62.1941 12.778 62.2034 12.4045V9.76855H63.5751V12.4045C63.5709 12.6278 63.6145 12.8496 63.7028 13.0558C63.7694 13.2587 63.8905 13.4407 64.0535 13.583C64.2185 13.7417 64.4134 13.8681 64.6277 13.9551C65.1676 14.1205 65.7466 14.1205 66.2865 13.9551C66.5005 13.8681 66.6956 13.7417 66.8607 13.583C67.0063 13.4272 67.1251 13.249 67.2114 13.0558C67.2767 12.8445 67.309 12.625 67.3072 12.4045V9.76855H68.6789V12.4045H68.6469Z" fill="#9F1F22"/>
<path d="M76.4298 11.5052C76.4315 11.7155 76.3993 11.9248 76.334 12.1254C76.2883 12.298 76.2008 12.4575 76.0788 12.5906C75.9863 12.7175 75.8666 12.8233 75.7281 12.9007C75.6075 12.9845 75.4795 13.0572 75.3452 13.1178L76.2701 15.0715H74.8668L74.0054 13.2729H71.1666V15.0715H69.7949V9.76855H74.6435C74.8151 9.77583 74.9856 9.79657 75.1539 9.83056C75.3625 9.88536 75.5577 9.98027 75.7281 10.1097C75.9269 10.2475 76.0907 10.4278 76.2065 10.6369C76.3695 10.8976 76.4474 11.2004 76.4298 11.5052ZM75.0581 11.5052C75.0551 11.399 75.0336 11.2941 74.9942 11.1951C74.9509 11.1257 74.8972 11.063 74.8348 11.009L74.6435 10.916C74.5898 10.9087 74.5364 10.8983 74.4839 10.885H71.1985V12.0634H74.4839C74.5388 12.0631 74.5928 12.0526 74.6435 12.0324L74.8348 11.9394C74.9136 11.894 74.9796 11.83 75.0261 11.7533C75.0432 11.6715 75.0539 11.5886 75.0581 11.5052Z" fill="#9F1F22"/>
<path d="M77.4824 15.0095V9.76855H78.8541V15.0095H77.4824Z" fill="#9F1F22"/>
<path d="M85.3608 15.0095L81.4693 11.3501V15.0095H80.0977V9.76855H81.4693L85.3608 13.4279V9.76855H86.7006V15.0095H85.3608Z" fill="#9F1F22"/>
<path d="M95.1855 12.4045C95.1807 12.7798 95.0936 13.1498 94.9303 13.4899C94.7531 13.8361 94.5032 14.1425 94.1967 14.3892C93.8446 14.6629 93.4449 14.873 93.0167 15.0095C91.9742 15.2988 90.8693 15.2988 89.8268 15.0095C89.3929 14.8856 88.9909 14.6743 88.6465 14.3892C88.3331 14.1493 88.0818 13.8413 87.9129 13.4899C87.7461 13.151 87.6589 12.7802 87.6577 12.4045C87.6625 12.0292 87.7496 11.6592 87.9129 11.3191C88.0902 10.9728 88.3403 10.6665 88.6465 10.4197C88.9986 10.146 89.3983 9.936 89.8268 9.79949C90.3426 9.64289 90.8813 9.56956 91.4218 9.58243C91.7853 9.5798 92.1485 9.61096 92.506 9.67545C92.8251 9.74604 93.1352 9.85002 93.4312 9.98557C93.6909 10.1048 93.9368 10.2503 94.1648 10.4197C94.3621 10.5899 94.5435 10.7767 94.7071 10.9779L93.527 11.5672C93.3402 11.2915 93.074 11.0757 92.7612 10.9469C92.3493 10.7723 91.9029 10.6876 91.4534 10.6988C91.1087 10.6882 90.7643 10.7301 90.4327 10.8229C90.1671 10.9024 89.9182 11.0285 89.6991 11.195C89.5153 11.3398 89.3637 11.5191 89.2526 11.7222C89.1476 11.9241 89.093 12.1472 89.093 12.3735C89.1004 12.5988 89.1547 12.8204 89.2526 13.0247C89.3637 13.2278 89.5153 13.4071 89.6991 13.5519C89.9182 13.7185 90.1671 13.8446 90.4327 13.9241C90.7643 14.0169 91.1087 14.0587 91.4534 14.0481C91.9479 14.0645 92.4392 13.9689 92.8889 13.769C93.2327 13.6146 93.5136 13.3525 93.6864 13.0247H90.943V12.0013H95.1855C95.1855 12.0633 95.2174 12.1254 95.2174 12.1874C95.1936 12.2573 95.1828 12.3308 95.1855 12.4045Z" fill="#9F1F22"/>
<path d="M18.4394 20.1264C18.4358 20.3032 18.3805 20.4753 18.2799 20.6226C18.1648 20.7968 18.0125 20.9448 17.8334 21.0568C17.5941 21.1867 17.336 21.2808 17.0678 21.3359C16.6998 21.4031 16.3258 21.4343 15.9514 21.4289C15.7269 21.4236 15.503 21.4029 15.2816 21.3669C15.0666 21.3375 14.8536 21.2961 14.6436 21.2428C14.4048 21.1739 14.1704 21.0911 13.9419 20.9948L14.2608 20.2505C14.4492 20.3547 14.654 20.428 14.8669 20.4676C15.0447 20.5201 15.2258 20.5616 15.4092 20.5916C15.6005 20.6226 15.7919 20.6226 15.9514 20.6536C16.3614 20.6654 16.7706 20.613 17.1635 20.4986C17.4187 20.4055 17.5463 20.2815 17.5463 20.1264C17.5485 20.0822 17.5377 20.0383 17.515 19.9998C17.4924 19.9614 17.459 19.93 17.4187 19.9094C17.2931 19.871 17.1653 19.8399 17.0359 19.8163H16.8126C16.6737 19.8192 16.5348 19.8088 16.398 19.7853C16.2273 19.7895 16.0565 19.7791 15.8876 19.7543C15.6962 19.7543 15.5048 19.7233 15.2816 19.7233C15.086 19.7252 14.8917 19.6937 14.7074 19.6303C14.5509 19.5872 14.4008 19.5247 14.2608 19.4442C14.141 19.3647 14.0425 19.2583 13.9738 19.1341C13.9084 18.9983 13.8757 18.8498 13.878 18.6999C13.8875 18.5338 13.9425 18.3731 14.0375 18.2347C14.1671 18.0781 14.3304 17.9511 14.516 17.8626C14.757 17.7431 15.015 17.6595 15.2816 17.6145C15.8273 17.5011 16.3904 17.4905 16.9402 17.5835C17.1552 17.6129 17.3682 17.6542 17.5782 17.7075C17.8165 17.7657 18.0508 17.8382 18.2799 17.9246L17.9929 18.6379C17.8687 18.5872 17.7407 18.5457 17.6101 18.5138C17.4825 18.4828 17.323 18.4208 17.1635 18.3898C17.0169 18.3561 16.8674 18.3353 16.717 18.3278C16.5695 18.3031 16.4199 18.2927 16.2704 18.2968C16.0678 18.2908 15.8651 18.3011 15.6643 18.3278C15.4729 18.3588 15.3135 18.3898 15.1859 18.4208C15.0682 18.4467 14.9588 18.4999 14.8669 18.5759C14.8031 18.6379 14.7393 18.6999 14.7393 18.7619C14.7371 18.8061 14.7479 18.8501 14.7705 18.8885C14.7932 18.927 14.8266 18.9584 14.8669 18.979C14.9801 19.0222 15.0977 19.0534 15.2178 19.072C15.3772 19.072 15.6324 19.103 15.9514 19.103C16.2704 19.103 16.6212 19.1341 17.0678 19.1651C17.2635 19.1604 17.4584 19.192 17.642 19.2581C17.7985 19.3012 17.9486 19.3637 18.0885 19.4442C18.2084 19.5237 18.3069 19.63 18.3756 19.7543C18.4177 19.8741 18.4393 19.9998 18.4394 20.1264Z" fill="#929497"/>
<path d="M23.7025 18.4519V21.3049H22.7775V18.4519H21.0869V17.6766H25.3931V18.4519H23.7025Z" fill="#929497"/>
<path d="M32.8257 18.855C32.8224 19.0017 32.8009 19.1475 32.7618 19.2892C32.7284 19.401 32.6744 19.506 32.6025 19.5993C32.5362 19.6792 32.4613 19.752 32.3792 19.8164C32.2897 19.861 32.2043 19.9128 32.1241 19.9714L32.7938 21.3359H31.7731L31.1669 20.0955H29.1894V21.3359H28.2324V17.6455H31.6137C31.7325 17.6538 31.8501 17.6746 31.9644 17.7076C32.1136 17.7434 32.2542 17.8066 32.3792 17.8936C32.5097 17.9961 32.618 18.1225 32.698 18.2658C32.7956 18.447 32.8397 18.6509 32.8257 18.855ZM31.9005 18.855C31.8987 18.7785 31.8766 18.7038 31.8369 18.6379C31.8119 18.5825 31.7662 18.5382 31.7092 18.5139C31.674 18.4812 31.6295 18.4596 31.5818 18.4519C31.5179 18.4519 31.486 18.4209 31.454 18.4209H29.1575V19.2582H31.454C31.4713 19.2602 31.489 19.2584 31.5057 19.2531C31.5221 19.2477 31.5373 19.2389 31.5498 19.2271C31.5979 19.2194 31.6424 19.1978 31.6773 19.1651C31.7343 19.1407 31.7799 19.0965 31.805 19.0411C31.8381 19.0229 31.865 18.9954 31.882 18.9622C31.899 18.9291 31.9056 18.8917 31.9005 18.855Z" fill="#929497"/>
<path d="M40.0029 21.3049L39.5564 20.5606H36.9089L36.4624 21.3049H35.4736L37.6425 17.6455H38.8548L41.0236 21.3049H40.0029ZM38.2486 18.3278L37.3873 19.7854H39.1099L38.2486 18.3278Z" fill="#929497"/>
<path d="M45.5844 18.4519V21.3049H44.6592V18.4519H42.9688V17.6766H47.2748V18.4519H45.5844Z" fill="#929497"/>
<path d="M50.0825 21.3049V17.6455H54.6118V18.4208H51.0393V19.1031H54.1972V19.8164H51.0393V20.5296H54.7715V21.3049H50.0825Z" fill="#929497"/>
<path d="M62.6821 19.4751C62.6869 19.7353 62.6209 19.9921 62.4905 20.2194C62.3672 20.4587 62.1932 20.67 61.9801 20.8396C61.7297 21.027 61.4495 21.1736 61.1507 21.2738C60.7884 21.3775 60.4124 21.4297 60.0345 21.4288C59.6567 21.4274 59.281 21.3752 58.918 21.2738C58.6136 21.1862 58.3313 21.0384 58.0886 20.8396C57.8756 20.67 57.7019 20.4587 57.5783 20.2194C57.4553 19.9893 57.3897 19.7344 57.387 19.4751C57.3819 19.2149 57.4479 18.9581 57.5783 18.7308C57.7019 18.4916 57.8756 18.2802 58.0886 18.1106C58.339 17.9233 58.6193 17.7767 58.918 17.6764C59.2807 17.5728 59.6564 17.5205 60.0345 17.5214C60.2909 17.524 60.5467 17.5447 60.8001 17.5834C61.0188 17.637 61.2325 17.7096 61.4378 17.8005C61.6193 17.8854 61.7903 17.9894 61.9482 18.1106C62.0921 18.2296 62.2204 18.365 62.3311 18.5137L61.5017 18.9169C61.3662 18.7257 61.1785 18.5753 60.9594 18.4827C60.6708 18.3494 60.3536 18.2856 60.0345 18.2967C59.797 18.2905 59.56 18.3219 59.3326 18.3897C59.1508 18.4472 58.9786 18.5308 58.8222 18.6378C58.6835 18.7316 58.5733 18.8602 58.5032 19.0099C58.4402 19.1465 58.4077 19.2945 58.4077 19.4441C58.4077 19.5938 58.4402 19.7417 58.5032 19.8783C58.5799 20.0239 58.6888 20.151 58.8222 20.2504C58.9786 20.3574 59.1508 20.4411 59.3326 20.4985C59.5603 20.564 59.797 20.5954 60.0345 20.5915C60.3745 20.6053 60.7132 20.5416 61.0233 20.4055C61.2531 20.2997 61.4429 20.126 61.5656 19.9093H59.6516V19.196H62.6182C62.6134 19.2397 62.6248 19.2837 62.6502 19.3201C62.6576 19.3723 62.6681 19.4241 62.6821 19.4751Z" fill="#929497"/>
<path d="M65.5845 21.3049V17.6455H66.5413V21.3049H65.5845Z" fill="#929497"/>
<path d="M69.6675 21.3049V17.6455H74.197V18.4208H70.6243V19.1031H73.7822V19.8164H70.6243V20.5296H74.3564V21.3049H69.6675Z" fill="#929497"/>
<path d="M81.6612 20.1264C81.6576 20.3032 81.6024 20.4753 81.5018 20.6226C81.3866 20.7968 81.2341 20.9448 81.0551 21.0568C80.816 21.1867 80.5578 21.2808 80.2895 21.3359C79.9215 21.4031 79.5476 21.4343 79.173 21.4289C78.9486 21.4236 78.7248 21.4029 78.5033 21.3669C78.2884 21.3375 78.0753 21.2961 77.8652 21.2428C77.6265 21.1739 77.3922 21.0911 77.1636 20.9948L77.4826 20.2505C77.6709 20.3547 77.8757 20.428 78.0888 20.4676C78.2666 20.5201 78.4475 20.5616 78.6311 20.5916C78.8224 20.6226 79.0137 20.6226 79.173 20.6536C79.5831 20.6654 79.9923 20.613 80.3853 20.4986C80.6405 20.4055 80.768 20.2815 80.768 20.1264C80.7703 20.0822 80.7593 20.0383 80.7369 19.9998C80.7142 19.9614 80.6808 19.93 80.6405 19.9094C80.5149 19.871 80.3871 19.8399 80.2576 19.8163H80.0344C79.8956 19.8192 79.7565 19.8088 79.6198 19.7853C79.4491 19.7895 79.2784 19.7791 79.1095 19.7543C78.9179 19.7543 78.7266 19.7233 78.5033 19.7233C78.3078 19.7252 78.1135 19.6937 77.9291 19.6303C77.7727 19.5872 77.6226 19.5247 77.4826 19.4442C77.3626 19.3647 77.2642 19.2583 77.1955 19.1341C77.1302 18.9983 77.0976 18.8498 77.0997 18.6999C77.1093 18.5338 77.1645 18.3731 77.2594 18.2347C77.3889 18.0781 77.5522 17.9511 77.7378 17.8626C77.9786 17.7431 78.2368 17.6595 78.5033 17.6145C79.0492 17.5011 79.612 17.4905 80.1621 17.5835C80.377 17.6129 80.5901 17.6542 80.7999 17.7075C81.0383 17.7657 81.2726 17.8382 81.5018 17.9246L81.2147 18.6379C81.0906 18.5872 80.9625 18.5457 80.8318 18.5138C80.7044 18.4828 80.5447 18.4208 80.3853 18.3898C80.2388 18.3561 80.0893 18.3353 79.9389 18.3278C79.7914 18.3031 79.6416 18.2927 79.4921 18.2968C79.2897 18.2908 79.0868 18.3011 78.8862 18.3278C78.6946 18.3588 78.5352 18.3898 78.4075 18.4208C78.2899 18.4467 78.1804 18.4999 78.0888 18.5759C78.0249 18.6379 77.961 18.6999 77.961 18.7619C77.9589 18.8061 77.9697 18.8501 77.9924 18.8885C78.015 18.927 78.0485 18.9584 78.0888 18.979C78.2019 19.0222 78.3195 19.0534 78.4394 19.072C78.5991 19.072 78.8543 19.103 79.173 19.103C79.4921 19.103 79.843 19.1341 80.2895 19.1651C80.4853 19.1604 80.6802 19.192 80.8638 19.2581C81.0201 19.3012 81.1703 19.3637 81.3102 19.4442C81.4302 19.5237 81.5287 19.63 81.5973 19.7543C81.6394 19.8741 81.6609 19.9998 81.6612 20.1264Z" fill="#929497"/>
</g>
<defs>
<clipPath id="clip0_305_231">
<rect width="94.5" height="21" fill="white" transform="translate(0.69043 0.800049)"/>
</clipPath>
</defs>
</svg>
