<svg width="500" height="103" viewBox="0 0 500 103" fill="none" xmlns="http://www.w3.org/2000/svg">
<g clip-path="url(#clip0_1714_11)">
<path d="M9.08333 42.2886H-0.166668V31.1512H9.08333V20.1813C9.08333 7.03414 13.6667 -0.334961 26.1667 -0.334961C29.75 -0.334961 33.25 -0.0837414 38 0.502437V11.4724C37.75 11.3049 36.3333 11.3049 35.4167 11.3049C27.8333 11.3049 27 16.8317 27 22.7772V31.0675H37.9167V42.2049H27V100.99H9.08333" fill="#005677"/>
<path d="M46 66.3219C46 44.7171 50.25 29.7276 74.25 29.7276C98.25 29.7276 101.667 42.6236 101.667 65.4008C101.667 87.1732 99.3333 102.749 73.8333 102.749C49.9167 102.581 46 89.0154 46 66.3219ZM83.8333 65.987C83.8333 52.4211 84.6667 40.7813 74.1667 40.7813C63.4167 40.7813 63.9167 52.6724 63.9167 66.3219C63.9167 83.4049 64.5 91.6951 73.8333 91.6951C83.6667 91.6951 83.8333 83.3211 83.8333 65.987Z" fill="#005677"/>
<path d="M115.333 44.3821C115.333 42.2886 115.167 34.4171 114.917 31.2349H132L132.25 40.2789C136.083 32.826 141.75 29.7276 150.083 29.7276H150.917V45.2195C149.833 45.052 149.25 44.9683 147.75 44.9683C137 44.9683 133.083 51.0813 133.083 62.0512V101.158H115.25" fill="#005677"/>
<path d="M162.333 42.0374C162.333 39.1065 162.167 33.5797 161.917 31.2349H179.583V39.274C183.583 32.9935 189.25 29.7276 197.083 29.7276C205.75 29.7276 211 32.7423 213.667 39.4415C218.667 32.7423 224.417 29.7276 232 29.7276C246.75 29.7276 250.5 38.8553 250.5 52.5886V101.158H232.583V54.0959C232.583 46.7268 232 40.7813 224.75 40.7813C217.833 40.7813 215.333 47.8154 215.333 55.6032V101.074H197.417V53.6772C197.417 46.2244 197 40.7813 189.833 40.7813C182.5 40.7813 180.167 48.5691 180.167 56.4406V101.074H162.333" fill="#005677"/>
<path d="M265.833 43.5447C265.833 39.6927 265.667 33.6634 265.417 31.2349H283.333V39.274C287.583 32.5748 293.583 29.7276 301.667 29.7276C314.25 29.7276 320.25 36.3431 320.25 50.9138V101.158H302.333V55.1008C302.333 46.8943 301.917 40.6976 293.917 40.6976C286.583 40.6976 283.667 48.4853 283.667 56.3569V101.158H265.833" fill="#BDD630"/>
<path d="M333.583 67.2431C333.583 44.8845 338.583 29.6439 362 29.6439C385.583 29.6439 388.667 45.6382 388.333 68.3317H351.333C351.333 85.4146 352.583 92.0301 361.083 92.0301C368 92.0301 370.5 86.3358 370.583 78.1293L387.667 79.6366C386.667 95.4634 378.417 102.498 361.167 102.498C337.833 102.581 333.583 89.3504 333.583 67.2431ZM351.333 58.3667H370.333C370.583 50.3276 370.167 40.3626 361.333 40.3626C353 40.3626 351.5 47.7317 351.333 58.3667Z" fill="#BDD630"/>
<path d="M414 64.3122L397 31.1512H416.917L426.25 55.1846L435.833 31.1512H453.167L436.25 64.4797L455.667 101.074H435.667L424.333 73.9423L412.5 101.074H394.167" fill="#BDD630"/>
<path d="M470.417 83.4886V42.2886H461.333V31.1512H470.417V18.9252L488.333 11.9748V31.1512H499.333V42.2886H488.333V81.6464C488.333 87.7594 489 90.5228 495.333 90.5228C496.333 90.5228 497.5 90.3553 499.75 90.1041V101.074C497 101.744 493.5 101.911 489.25 101.911C475.083 101.911 470.417 97.6407 470.417 83.4886Z" fill="#BDD630"/>
</g>
<defs>
<clipPath id="clip0_1714_11">
<rect width="500" height="103" fill="white"/>
</clipPath>
</defs>
</svg>
