<svg width="43" height="16" viewBox="0 0 43 16" fill="none" xmlns="http://www.w3.org/2000/svg">
<g clip-path="url(#clip0_2190_16)">
<path d="M41.9472 5.88156H31.2865C31.9075 4.71516 33.1329 3.92234 34.5447 3.92234C35.5218 3.92234 36.4036 4.30423 37.066 4.92271H41.6574C40.5685 2.04614 37.7947 0.00390625 34.5447 0.00390625C32.011 0.00390625 29.7671 1.24917 28.3843 3.16273C29.175 4.46196 29.6346 5.99364 29.6346 7.62909C29.6346 8.22681 29.5725 8.80794 29.4566 9.37246H37.803C37.1819 10.5389 35.9565 11.3317 34.5447 11.3317C33.5677 11.3317 32.6858 10.9498 32.0234 10.3313H29.1957C28.9887 10.9539 28.7196 11.5475 28.3843 12.0996C29.7671 14.0132 32.0068 15.2584 34.5447 15.2584C38.7428 15.2584 42.15 11.8464 42.15 7.63324C42.1459 7.02721 41.9472 5.88156 41.9472 5.88156Z" fill="black"/>
<path d="M15.2065 7.62518C15.2065 3.41618 11.8034 0 7.60118 0C3.399 0 0 3.41618 0 7.62518C0 11.8342 3.40314 15.2504 7.60532 15.2504C10.8553 15.2504 13.6291 13.204 14.718 10.3274H10.1266C9.46836 10.9459 8.58238 11.3278 7.60532 11.3278C6.19356 11.3278 4.96809 10.535 4.34708 9.36855H15.0078C15.1361 8.80818 15.2065 8.22706 15.2065 7.62518ZM4.34708 5.88181C4.96809 4.71541 6.19356 3.92259 7.60532 3.92259C9.01709 3.92259 10.2426 4.71541 10.8636 5.88181H4.34708Z" fill="black"/>
<path d="M26.3516 2.1543C26.3516 2.1543 26.4178 2.21656 26.4468 2.24977C26.4344 2.23316 26.4054 2.20411 26.3516 2.1543Z" fill="black"/>
<path d="M26.4512 2.24561C26.4671 2.26554 26.4631 2.26156 26.4512 2.24561Z" fill="black"/>
<path d="M27.6808 3.86035L24.7537 7.3554C24.762 7.45087 24.7662 7.54219 24.7662 7.63766C24.7662 9.55952 23.3047 11.141 21.4334 11.3236L18.5146 14.8104C19.3137 15.0968 20.179 15.2587 21.0774 15.2587C25.2754 15.2587 28.6827 11.8467 28.6827 7.63351C28.6785 6.25956 28.3142 4.96864 27.6808 3.86035Z" fill="black"/>
<path d="M25.5442 1.46931C25.2585 1.25761 24.9563 1.07082 24.6375 0.904785L22.0044 4.05531C22.3646 4.15078 22.7082 4.29606 23.0146 4.49115L25.5442 1.46931Z" fill="black"/>
<path d="M17.7195 9.17334L15.0864 12.3197C15.3058 12.602 15.5418 12.8718 15.7944 13.1167L18.3198 10.099C18.0756 9.82503 17.8768 9.50956 17.7195 9.17334Z" fill="black"/>
<path d="M16.606 13.7975C16.8916 14.005 17.1938 14.2001 17.5085 14.3662L20.1457 11.2156C19.7855 11.1202 19.4461 10.9707 19.1355 10.7798L16.606 13.7975Z" fill="black"/>
<path d="M26.3516 2.1543L23.8262 5.17199C24.0704 5.44595 24.2733 5.75727 24.4306 6.09349L27.0679 2.94297C26.8484 2.6607 26.3516 2.1543 26.3516 2.1543Z" fill="black"/>
<path d="M23.0191 4.49121L18.3242 10.0991C18.5602 10.3647 18.8293 10.593 19.1315 10.7798L23.8264 5.17196C23.5904 4.9063 23.0191 4.49121 23.0191 4.49121Z" fill="black"/>
<path d="M24.4307 6.09326L20.1416 11.2113C20.4397 11.2902 20.7502 11.3358 21.069 11.3358C21.189 11.3358 21.3091 11.3275 21.4292 11.3192L24.7495 7.35098C24.7205 6.90684 24.6087 6.48345 24.4307 6.09326Z" fill="black"/>
<path d="M17.3965 7.91136L20.7168 3.94727C20.8327 3.93482 20.957 3.93066 21.077 3.93066C21.3999 3.93066 21.7104 3.97632 22.0044 4.05519L17.7194 9.17323C17.5414 8.78305 17.4296 8.35966 17.3965 7.91136Z" fill="black"/>
<path d="M17.3922 7.90744C17.384 7.81197 17.3798 7.72065 17.3798 7.62518C17.3798 5.70332 18.8413 4.12183 20.7126 3.93919L23.6313 0.448296C22.8323 0.161885 21.9712 0 21.0686 0C18.5349 0 16.291 1.24527 14.9082 3.15883C15.7031 4.45805 16.1585 5.98973 16.1585 7.62518C16.1585 8.33083 15.906 9.67572 15.906 9.67572L17.3922 7.90744Z" fill="black"/>
</g>
<defs>
<clipPath id="clip0_2190_16">
<rect width="43" height="16" fill="white"/>
</clipPath>
</defs>
</svg>
