<svg width="774" height="245" viewBox="0 0 774 245" fill="none" xmlns="http://www.w3.org/2000/svg">
<g clip-path="url(#clip0_174_30)">
<path d="M744 61.67H621.42C604.631 61.67 591.02 75.2805 591.02 92.07V214.66C591.02 231.449 604.631 245.06 621.42 245.06H744C760.789 245.06 774.4 231.449 774.4 214.66V92.07C774.4 75.2805 760.789 61.67 744 61.67Z" fill="url(#paint0_linear_174_30)"/>
<path d="M637.28 202.14C620.28 202.14 616.66 196.33 616.66 180.22V138.56H606.5V124H616.66V103H637.13V124H649V138.52H637.1V181.2C637.1 185.26 638.4 186.13 643.92 186.13H649V201.7C643.34 201.85 639.42 202.14 637.25 202.14" fill="white"/>
<path d="M719.72 172.09C717.98 191.69 704.49 203.74 684.72 203.74C662.51 203.74 648.87 188.5 648.87 162.51C648.87 136.67 662.8 121.29 685.44 121.29C705.44 121.29 718.11 132.61 719.56 151.29H699.11C697.95 143.17 693.11 138.66 685.61 138.66C675.31 138.66 670.37 146.8 670.37 162.76C670.37 177.71 675.89 185.84 685.61 185.84C693.3 185.84 697.95 181.2 699.4 172.05L719.72 172.09Z" fill="white"/>
<path d="M747.16 202.14C730.16 202.14 726.54 196.33 726.54 180.22V138.56H716.38V124H726.54V103H747V124H758.9V138.52H747V181.2C747 185.26 748.31 186.13 753.82 186.13H758.9V201.7C753.25 201.85 749.32 202.14 747.15 202.14" fill="white"/>
<path d="M26.09 131.66C18.78 131.66 16.91 135.74 15.72 139.14H15.38L14.69 131.66H0.399994C1.58999 136.42 1.92999 140.85 1.92999 148.66V194.66C1.92999 202.49 1.58999 206.92 0.399994 211.66H17.76C16.57 206.9 16.23 202.47 16.23 194.66V150.76C16.23 143.61 17.59 141.91 23.55 141.91H35.46C42.587 141.996 49.6972 142.622 56.73 143.78L57.58 131.7L26.09 131.66ZM154.25 152.42C154.25 136.42 148.8 131.66 133.48 131.66H69.15L68 141C72.77 139.81 77.19 139.48 85 139.48H132.65C138.65 139.48 139.97 141.17 139.97 147.98V148.98C139.97 156.12 138.61 157.82 132.65 157.82H87.19C71.88 157.82 66.43 162.59 66.43 178.59V190.84C66.43 206.84 71.88 211.6 87.19 211.6H129.74C133.48 211.6 135.52 211.6 137.06 210.92C138.42 210.24 139.27 209.05 140.29 206.5H140.63L141.99 211.6H155.78C154.58 206.84 154.25 202.41 154.25 194.6V152.42ZM140 195C140 202.15 138.64 203.85 132.68 203.85H88C82 203.85 80.68 202.15 80.68 195V174.54C80.68 167.39 82.05 165.69 88 165.69H140V195ZM180.16 148.37C180.16 141.22 181.52 139.53 187.48 139.53H232C237.95 139.53 239.32 141.22 239.32 148.37V195C239.32 202.15 237.95 203.85 232 203.85H187.43C181.43 203.85 180.11 202.15 180.11 195L180.16 148.37ZM165.86 224.96C165.86 232.79 165.53 237.21 164.34 241.96H181.69C180.5 237.19 180.16 232.77 180.16 224.96V206.2H180.5C181.69 210.28 186.12 211.64 191.56 211.64H233.43C248.24 211.64 253.68 206.88 253.68 190.88V152.42C253.68 136.42 248.24 131.66 232.41 131.66H190.71C184.24 131.66 180.16 133.35 179.65 138.66H179.31L178.46 131.66H164.29C165.48 136.42 165.81 140.85 165.81 148.66L165.86 224.96ZM282.1 131.7H266.22C267.42 136.46 267.75 140.89 267.75 148.7V194.7C267.75 202.53 267.42 206.96 266.22 211.7H283.58C282.39 206.94 282.05 202.51 282.05 194.7L282.1 131.7ZM371.4 195C371.4 202.15 370.03 203.85 364.08 203.85H319.49C313.54 203.85 312.17 202.15 312.17 195V148.33C312.17 141.18 313.54 139.49 319.49 139.49H364.08C370.03 139.49 371.4 141.18 371.4 148.33V195ZM370.2 102.76C371.4 107.53 371.74 111.95 371.74 119.76V140.18H371.4C370.2 134.57 369.18 133.18 367.31 132.53C365.61 131.85 363.23 131.68 360 131.68H318.64C303.32 131.68 297.87 136.44 297.87 152.44V190.9C297.87 206.9 303.32 211.66 318.64 211.66H360.85C367.31 211.66 371.4 209.96 371.85 204.66H372.19L373.19 211.66H387.19C386 206.9 385.66 202.47 385.66 194.66V102.76H370.2Z" fill="black"/>
<path d="M539.73 150.21H495.48V105.97H482.24V150.21H437.99V163.46H482.24V207.71H495.48V163.46H539.73V150.21Z" fill="#047DBB"/>
<path d="M236.28 15.2C236.28 15.2 228.39 44.36 238.76 53.3C249.13 62.24 261.19 59.93 276.59 63.19C291.99 66.45 300.66 80.38 305.7 91C310 100.07 305.57 110.41 305.57 110.41C305.57 110.41 258.52 139.49 225.48 91C198.08 50.72 235.77 15 236.28 15.2Z" fill="#001E37"/>
<path d="M279.52 103.8C292.653 103.8 303.3 93.1533 303.3 80.02C303.3 66.8867 292.653 56.24 279.52 56.24C266.387 56.24 255.74 66.8867 255.74 80.02C255.74 93.1533 266.387 103.8 279.52 103.8Z" fill="url(#paint1_radial_174_30)"/>
<path d="M244.91 8.56C230.54 17.5 223.63 31.45 222.59 33.36C230.7 24.47 239.73 16.79 255.68 9.9C264.226 6.17422 273.079 3.19641 282.14 1C269.229 -0.883068 256.064 1.79007 244.91 8.56Z" fill="url(#paint2_linear_174_30)"/>
<path d="M252.36 14.58C233.7 24.42 222.06 34.71 220.18 38.81C218.409 42.8513 217.12 47.0872 216.34 51.43C219.17 47.96 227.09 35.31 255.68 21.49C266.55 16.24 286.28 7.93 298.32 5.16C294.972 3.43162 291.341 2.31733 287.6 1.87C287.6 1.87 274 3.18 252.36 14.58Z" fill="url(#paint3_radial_174_30)"/>
<path d="M215.4 58.77C215.138 63.9456 215.816 69.1259 217.4 74.06C220.33 64.28 226.75 57.06 250.92 44.86C271.68 34.35 314.22 17.24 313.18 14.24C312.14 11.24 305.88 7.33 302.18 6.72C299.91 6.34 268.32 20.43 249.88 29.56C229.12 39.83 215.6 53.47 215.4 58.77Z" fill="url(#paint4_radial_174_30)"/>
<path d="M225.48 91C224.63 81.43 232.35 71.49 264.29 58.54C308.62 40.54 322.88 25.8 322.62 24.17C321.68 21.49 316.1 16.72 316.05 16.82C313.82 21.28 302.05 28.91 264.32 44.39C233.32 57.15 218.68 70.58 218.91 77.99C220.5 84.31 225.5 91.18 225.48 91Z" fill="url(#paint5_radial_174_30)"/>
<path d="M329.41 35.13C328.96 33.43 325.41 28.45 325.12 27.72C323.12 38.29 301.51 53.3 262.21 69.38C240.07 78.44 227.85 88.88 229.29 96.13C232.58 100.93 239.29 106.31 239.29 106.31C237.77 98.86 259.29 87.67 279.03 78.56C314.24 62.35 331.61 43.41 329.41 35.13Z" fill="url(#paint6_radial_174_30)"/>
<path d="M331.93 42.41C326.09 62.47 291.82 82.2 275.48 88.92C259.14 95.64 243.89 105.24 243.89 109.46C243.89 111.33 259.89 118.35 260.61 117.46C265.41 111.72 274.36 108.39 288.96 100.04C310.88 87.51 323.11 74.46 329.59 63.34C331.38 60.1928 332.511 56.7141 332.913 53.1158C333.316 49.5174 332.981 45.8748 331.93 42.41Z" fill="url(#paint7_radial_174_30)"/>
<path d="M334.29 56C328.12 84 307.17 97.05 291.5 105.78C271.38 116.98 262.21 117.84 262.21 117.84C277.088 120.607 292.465 117.968 305.57 110.4C328.34 97 335.58 75.12 334.29 56Z" fill="url(#paint8_linear_174_30)"/>
</g>
<defs>
<linearGradient id="paint0_linear_174_30" x1="682.71" y1="61.67" x2="682.71" y2="245.06" gradientUnits="userSpaceOnUse">
<stop offset="0.03" stop-color="#2A3B8F"/>
<stop offset="1" stop-color="#26A8E0"/>
</linearGradient>
<radialGradient id="paint1_radial_174_30" cx="0" cy="0" r="1" gradientUnits="userSpaceOnUse" gradientTransform="translate(279.52 80.02) scale(23.78 23.78)">
<stop stop-color="#26A7DF"/>
<stop offset="0.17" stop-color="#24A3DA"/>
<stop offset="0.36" stop-color="#1F96CD"/>
<stop offset="0.55" stop-color="#1781B7"/>
<stop offset="0.75" stop-color="#0C6498"/>
<stop offset="0.92" stop-color="#004778"/>
</radialGradient>
<linearGradient id="paint2_linear_174_30" x1="222.59" y1="16.88" x2="282.15" y2="16.88" gradientUnits="userSpaceOnUse">
<stop stop-color="#26A7DF"/>
<stop offset="0.29" stop-color="#278BCA"/>
<stop offset="0.93" stop-color="#2A4394"/>
<stop offset="1" stop-color="#2A3B8E"/>
</linearGradient>
<radialGradient id="paint3_radial_174_30" cx="0" cy="0" r="1" gradientUnits="userSpaceOnUse" gradientTransform="translate(257.33 26.65) scale(33.87 33.87)">
<stop stop-color="#26A7DF"/>
<stop offset="0.39" stop-color="#25A5DD"/>
<stop offset="0.58" stop-color="#219DD5"/>
<stop offset="0.72" stop-color="#1B90C9"/>
<stop offset="0.84" stop-color="#137EB7"/>
<stop offset="0.94" stop-color="#08679F"/>
<stop offset="1" stop-color="#00568F"/>
</radialGradient>
<radialGradient id="paint4_radial_174_30" cx="0" cy="0" r="1" gradientUnits="userSpaceOnUse" gradientTransform="translate(264.29 40.39) scale(41.99)">
<stop offset="0.49" stop-color="#42B4E7"/>
<stop offset="1" stop-color="#0066A8"/>
</radialGradient>
<radialGradient id="paint5_radial_174_30" cx="0" cy="0" r="1" gradientUnits="userSpaceOnUse" gradientTransform="translate(270.76 53.88) scale(45.08 45.08)">
<stop offset="0.49" stop-color="#42B4E7"/>
<stop offset="1" stop-color="#0066A8"/>
</radialGradient>
<radialGradient id="paint6_radial_174_30" cx="0" cy="0" r="1" gradientUnits="userSpaceOnUse" gradientTransform="translate(279.39 67.02) scale(45.08 45.08)">
<stop offset="0.49" stop-color="#42B4E7"/>
<stop offset="1" stop-color="#0066A8"/>
</radialGradient>
<radialGradient id="paint7_radial_174_30" cx="0" cy="0" r="1" gradientUnits="userSpaceOnUse" gradientTransform="translate(288.49 79.97) scale(41.23 41.23)">
<stop offset="0.49" stop-color="#42B4E7"/>
<stop offset="1" stop-color="#00539B"/>
</radialGradient>
<linearGradient id="paint8_linear_174_30" x1="262.21" y1="87.44" x2="334.43" y2="87.44" gradientUnits="userSpaceOnUse">
<stop stop-color="#2A3B8E"/>
<stop offset="1" stop-color="#26A7DF"/>
</linearGradient>
<clipPath id="clip0_174_30">
<rect width="774" height="245" fill="white"/>
</clipPath>
</defs>
</svg>
