<?xml version="1.0" encoding="utf-8"?>
<!-- Generator: Adobe Illustrator 20.1.0, SVG Export Plug-In . SVG Version: 6.00 Build 0)  -->
<svg version="1.1" id="Layer_1" xmlns="http://www.w3.org/2000/svg" xmlns:xlink="http://www.w3.org/1999/xlink" x="0px" y="0px"
	 viewBox="0 0 349.3 115.6" style="enable-background:new 0 0 349.3 115.6;" xml:space="preserve">
<style type="text/css">
	.st0{fill:#FFCC00;}
</style>
<g id="XMLID_53_">
	<g id="XMLID_2061_">
		<g id="XMLID_2062_">
			<path id="XMLID_2075_" class="st0" d="M51,101.7c0,3.1,0.5,3.4,4.9,3.4c4.3,0,4.9-0.3,4.9-3.4c0-2.2-0.3-2.9-2-3.1
				c1.5-0.2,1.7-0.9,1.7-2.7c0-2.9-0.5-3.4-4.6-3.4s-4.6,0.5-4.6,3.4c0,1.8,0.2,2.5,1.7,2.7C51.3,98.8,51,99.5,51,101.7z M55.9,94.2
				c1.9,0,2.2,0.2,2.2,1.7c0,1.6-0.2,1.8-2.2,1.8s-2.2-0.2-2.2-1.8C53.7,94.4,53.9,94.2,55.9,94.2z M55.9,99.5
				c2.2,0,2.5,0.2,2.5,1.9c0,1.7-0.3,1.8-2.5,1.8s-2.5-0.2-2.5-1.8C53.4,99.7,53.7,99.5,55.9,99.5z"/>
			<path id="XMLID_2071_" class="st0" d="M30.4,101.7c0,3.1,0.5,3.4,4.9,3.4c4.3,0,4.9-0.3,4.9-3.4c0-2.2-0.3-2.9-2-3.1
				c1.5-0.2,1.7-0.9,1.7-2.7c0-2.9-0.5-3.4-4.6-3.4s-4.6,0.5-4.6,3.4c0,1.8,0.2,2.5,1.7,2.7C30.7,98.8,30.4,99.5,30.4,101.7z
				 M35.3,94.2c1.9,0,2.2,0.2,2.2,1.7c0,1.6-0.2,1.8-2.2,1.8s-2.2-0.2-2.2-1.8C33.1,94.4,33.3,94.2,35.3,94.2z M35.3,99.5
				c2.2,0,2.5,0.2,2.5,1.9c0,1.7-0.3,1.8-2.5,1.8s-2.5-0.2-2.5-1.8C32.8,99.7,33.1,99.5,35.3,99.5z"/>
			<path id="XMLID_2070_" class="st0" d="M76.4,103.3c-2.1,0-2.3-0.2-2.3-1.8l-2.4,0.1c0,3.1,0.4,3.5,4.7,3.5c4.2,0,4.7-0.4,4.7-3.7
				c0-3.5-0.5-3.9-4.4-3.9c-1.1,0-1.8,0.1-2.4,0.2l0.1-3.3h4.3l0.1,1.4h1.9v-3.2h-8.6L72,99.5c1.3-0.1,2.4-0.2,4.1-0.2
				c2.4,0,2.6,0.5,2.6,2.1C78.7,103.1,78.4,103.3,76.4,103.3z"/>
			<path id="XMLID_2069_" class="st0" d="M69.8,14.2c0.2-0.3,0.4-0.7,0.7-1c-0.2-0.4-0.5-1.1-0.6-1.1c-0.2,0-1,1.1-1.4,2.1
				C69.1,14.1,69.6,14.2,69.8,14.2z"/>
			<polygon id="XMLID_2068_" class="st0" points="15.3,94.7 15.3,103.1 12.5,103.2 12.5,104.9 20.2,104.9 20.2,103.2 17.7,103.1 
				17.7,92.6 16.6,92.6 16.6,92.6 12.3,93.3 12.5,95 			"/>
			<path id="XMLID_2063_" class="st0" d="M0,0v115.6h93.4V0H0z M3.5,3.8h86.4v71.4l-1.1-1.6l-3.3-2.7L80.6,68l-2.4-0.4l-2.3-0.4
				c0,0-2.3-1.5-3.1-1.5c-0.8,0-2.4,1.1-2.4,1.1l-1.9,0.1L68,67.2c-0.2-0.8-0.4-1.6-0.4-1.6c-0.2-1-0.4-2.2-0.4-2.4
				c0-0.3-0.2-1.8-0.3-2.5c0-0.7-0.5-2.5-0.5-2.5l-0.1-7.8c-0.8,0.7-1.7,1.4-2.4,1.7c0,0-1.7,6.5-1.2,10.9c0.2,0.5,0.3,0.9,0.4,1.1
				c0.3,0.5,0.9,2.2,1.3,3.3l0,0c0.1,0.3,0.3,1,0.5,1.4l-0.2,0.1c-0.1-0.3-0.3-0.6-0.4-0.8c-0.4-0.7-2.2-0.4-2.5-0.6
				s-0.3-0.8-0.4-1.1c0-0.1,0-0.1,0-0.2l0,0c0-0.3,0-0.5,0-0.5l0.1-1.8c0,0,0.1-10.7,1.2-14.7l0,0l0,0l0,0c0-0.1,0-0.1,0.1-0.2
				c0,0,2.9,0.1,6.2-3.8c1-1.4,2.2-3.6,2.5-4.6c0.1-0.3,0.2-0.5,0.2-0.8c-0.3-0.8-0.7-1.7-1.3-2.1c0,0,0.9,0,1.6,0.2
				c0-0.5,0-0.9-0.2-1.3c-0.4-1.2,0.8-2.9,1.4-3.3c0.6-0.4,0.6-1.5,0.6-1.8c0-0.2-0.2-0.7-0.3-1.2l0,0c0,0-0.7-2.1-0.4-3.4
				c0,0,0,1.8,1.7,2.1c0.1,0,0.3,0,0.4,0l0,0c0.7,0.1,1.4,0.2,1.8,0.3c1,0.1,1.4-1.3,1.4-1.3s0.6-0.5,1.2-1.1
				c0.7-0.7,0.9-0.9,0.8-1.7c-0.1-0.8-4.3-3.9-4.3-3.9l0,0c-0.9-0.6-1.7-1.2-2-1.4c0,0,0.6-0.5,1.1-0.2c0.4,0.2-0.1,0.5,1,1.3
				c0-0.4,0.1-1-0.1-1.5c-0.2-0.6-1.9-2.2-2.7-2.9l-0.6,1.3l0.4-3.9c0-1,0-1.9-0.2-2.4c-0.3-0.6-0.9,0-1.4,0.8l0,0
				c-0.6,1-1.3,2.7-1.3,2.7s-1-0.1-2-0.1l0,0c-0.3,0-0.9,0-1.4,0.1c-0.1,0-0.1,0-0.2,0C66,15,65.4,15.2,65,15.6
				c-1.2,1.1-4,4.8-4,4.8s-2.9,3-3.4,3.4c-0.6,0.4-1.4,1.4-3,1.8c0,0-0.3,0.6-0.4,1.1c0,0.6,0,1.3,0.4,1.7c0,0-0.5-0.3-1.1-0.7
				c-1.9,1.4-7,4.2-7.5,4.5c-0.6,0.4-3,2.1-4.9,2.3c0,0-12.5,2.7-13.2,3.8c-2.8,1.2-3.7,3-4.2,4.1c-0.6,1.3-2.1,5.5-3.7,8.4
				c-1.6,2.9-7,6-7.8,6.6c-0.8,0.7-1.9,0.5-0.4,1.9c1.4,1.4,5,0.9,7.6,0.1c0.1,0,0.2-0.1,0.3-0.1c0.1-0.1,0.3-0.2,0.5-0.2
				c0.3-0.2,0.7-0.4,1-0.7c1.5-1.3,2.4-4,2.4-4c-0.1-0.2-0.2-0.3-0.3-0.5c-0.3-0.8-0.7-2.4,0.5-4c-0.1,1.8,0.2,3.6,1.7,4.7
				c0.7,0.4,0.8,1.1,0.8,1.1c0.5,2.1-1,4.4-2.4,5.7c-1,0.9-1.1,1.1-1,2.1c0,0,2.9,8.7,2.1,11.9l-1.7,0.5c0,0,0.8-5.5-0.2-9.8
				c0,0.9-0.1,2-0.3,3c0,0-0.6,4.6-1.1,5.5c-0.2,0.3-0.2,1-0.1,1.6l-2.2,0.7c0,0-3,1.1-3.5,1.2c-0.4,0.1-2.2,0.1-2.2,0.1
				s-2.8,0.1-3.3,0.1c-0.5,0.1-2.7,1.2-2.7,1.2l-1.9,0.1l-2.3,0.8C3.5,80.4,3.5,3.8,3.5,3.8z M58.1,70.4l-1.8,0.8L51,72.7l-4.3,0.6
				c0,0-3.1,0.2-4-0.4s-3.7-0.3-4-0.3s-2.3,0.6-3.8,1.1c-0.5,0.1-1,0.3-1.5,0.5c-0.8-0.5-2.5-1.5-4.7-1.7c0,0-0.2-0.4-0.3-1.1
				c-0.1-0.7-0.4-6-0.3-7.2c0.2-1.2,3.2-3.1,5.8-5.3s3.2-5,3.2-5s0.8-1.3,1.5-1.7c0.8-0.4,3.1-0.1,4.8,0.6
				c1.7,0.7,10.8,0.1,10.8,0.1c0,1.4,1.4,7.7,1.8,9.4c0.3,1.1,0.8,3.4,1.2,4.9C57.9,68.5,58.1,70.1,58.1,70.4z M89.9,112.1H3.5V85.2
				h86.4V112.1z"/>
		</g>
	</g>
	<g id="XMLID_54_">
		<g id="XMLID_55_">
			<path id="XMLID_2059_" class="st0" d="M144.6,38.6h-10v-3.3l2.6-0.2V18.6l-6.3,20.1h-4.7l-6.4-19.9v16.4l2.6,0.2v3.3h-10v-3.3
				l2.8-0.2V17.9l-2.7-0.2v-3.3h10.6l4.9,15.9c0.3,0.9,0.5,1.8,0.7,2.7c0.2-0.9,0.5-1.8,0.7-2.7l4.8-15.9h10.3v3.3l-2.8,0.2v17.3
				l2.8,0.2L144.6,38.6L144.6,38.6z"/>
			<path id="XMLID_2056_" class="st0" d="M156.2,38.6h-9.7v-3.1l2.7-0.2v-12l-2.7-0.1V20h7.1v15.3l2.6,0.2L156.2,38.6L156.2,38.6z
				 M148.5,15.1c0-2,0.3-2.4,2.7-2.4c2.3,0,2.6,0.3,2.6,2.4c0,2-0.3,2.4-2.6,2.4C148.9,17.4,148.5,17.1,148.5,15.1z"/>
			<path id="XMLID_2054_" class="st0" d="M174.1,26.1l-4.1,0.2c0-2.4-0.6-3.1-3.7-3.1c-3.4,0-3.9,0.8-3.9,6.2s0.5,6.2,3.9,6.2
				c3.2,0,3.7-0.6,3.7-3l4.1-0.2c0,5.3-1.1,6.6-7.9,6.6c-6.9,0-8.2-1.6-8.2-9.6s1.3-9.6,8.2-9.6C172.9,19.8,174.1,21.1,174.1,26.1z"
				/>
			<path id="XMLID_2052_" class="st0" d="M197.1,38.6h-9.7v-3.1l2.6-0.2v-8.8c0-2.4-0.7-3.1-3.1-3.1c-1.5,0-2.6,0.3-4.6,1.4v10.5
				l2.6,0.2v3.1h-9.8v-3.1l2.6-0.2V15.9l-2.6-0.1v-3.2h7.1v9.9c1.7-1.6,3.9-2.7,6.9-2.7c3.9,0,5.3,1.2,5.3,5.7v9.9l2.6,0.2
				L197.1,38.6L197.1,38.6z"/>
			<path id="XMLID_2049_" class="st0" d="M208.7,38.6H199v-3.1l2.7-0.2v-12l-2.7-0.1V20h7.1v15.3l2.6,0.2L208.7,38.6L208.7,38.6z
				 M201.1,15.1c0-2,0.3-2.4,2.7-2.4c2.3,0,2.6,0.3,2.6,2.4c0,2-0.3,2.4-2.6,2.4C201.4,17.4,201.1,17.1,201.1,15.1z"/>
			<path id="XMLID_2046_" class="st0" d="M227.6,23.4v14.7c0,6.2-1.5,7.6-8.6,7.6c-6.6,0-7.8-1.3-7.8-5.8l4-0.2
				c0,2.1,0.6,2.8,3.7,2.8c3.6,0,4.2-1.1,4.2-4.4v-2.7c-1.9,2.2-3.3,2.7-6,2.7c-4.8,0-6.6-1.5-6.6-9.2c0-7.6,1.7-9.2,6.6-9.2
				c2.8,0,4.3,0.5,6,2.4V20h4.5l0,0h2.6v3.1L227.6,23.4z M223.1,33.3v-8.9c-1.3-0.8-2.3-1-4.4-1c-3.2,0-3.9,0.7-3.9,5.5
				s0.7,5.5,3.9,5.5C220.8,34.4,221.8,34.2,223.1,33.3z"/>
			<path id="XMLID_1645_" class="st0" d="M250.6,38.6h-6.8l-0.2-2.7c-2.1,2.2-4,3-6.6,3c-4.1,0-5.8-2.3-5.8-5.4
				c0-3.3,1.3-5.7,9.4-5.7h2.9v-1.1c0-2.9-0.6-3.8-3.8-3.8c-3,0-3.5,0.7-3.5,2.6l-4.1,0.2c0-4.5,1.4-6,7.8-6c6.6,0,8.1,1.5,8.1,7
				v8.6l2.6,0.1L250.6,38.6L250.6,38.6z M238.3,35.6c2,0,3.4-0.7,5.2-2.4v-2.8h-2.3c-5,0-5.7,1.2-5.7,2.9
				C235.5,34.6,236.3,35.6,238.3,35.6z"/>
			<path id="XMLID_1643_" class="st0" d="M274.4,38.6h-9.7v-3.1l2.6-0.2v-8.8c0-2.4-0.7-3.1-3.1-3.1c-1.5,0-2.6,0.3-4.6,1.4v10.5
				l2.6,0.2v3.1h-9.8v-3.1l2.6-0.2v-12l-2.6-0.2V20h7.1v2.4c1.7-1.6,3.9-2.7,6.9-2.7c3.9,0,5.3,1.2,5.3,5.7v9.9l2.6,0.2v3.1
				C274.3,38.6,274.4,38.6,274.4,38.6z"/>
			<path id="XMLID_1641_" class="st0" d="M134.5,54.5h-3.6l-0.3-4.4h-3.7l-1.1,0.1v17.3l2.9,0.2V71h-10.4v-3.3l2.8-0.2V50.2
				l-1.1-0.1h-3.6l-0.3,4.4h-3.6v-7.8h22.1v7.8C134.6,54.5,134.5,54.5,134.5,54.5z"/>
			<path id="XMLID_1633_" class="st0" d="M146.7,65.4l4.1-0.2c0,4.8-1.1,6.1-7.8,6.1c-6.9,0-8.2-1.6-8.2-9.6s1.3-9.6,8.2-9.6
				s7.9,1.4,7.9,9.9c0,0.8-0.2,1-1,1H139c0.1,4.5,0.7,5.1,3.9,5.1C146.1,68.1,146.7,67.5,146.7,65.4z M139,60.3h7.7
				c-0.1-4.4-0.8-5-3.8-5C139.7,55.3,139.1,55.9,139,60.3z"/>
			<path id="XMLID_1631_" class="st0" d="M169.7,58.4l-4.1,0.2c0-2.4-0.6-3.1-3.7-3.1c-3.4,0-3.9,0.8-3.9,6.2s0.5,6.2,3.9,6.2
				c3.2,0,3.7-0.6,3.7-3l4.1-0.2c0,5.3-1.1,6.6-7.9,6.6c-6.9,0-8.2-1.6-8.2-9.6s1.3-9.6,8.2-9.6C168.6,52.1,169.7,53.4,169.7,58.4z"
				/>
			<path id="XMLID_1610_" class="st0" d="M192.8,71h-9.7v-3.1l2.6-0.2v-8.8c0-2.4-0.7-3.1-3.1-3.1c-1.5,0-2.6,0.3-4.6,1.4v10.5
				l2.6,0.2V71H171v-3.1l2.6-0.2V48.2l-2.6-0.1v-3.2h7.1v9.9c1.7-1.6,3.9-2.7,6.9-2.7c3.9,0,5.3,1.2,5.3,5.7v9.9l2.6,0.2V71H192.8z"
				/>
			<path id="XMLID_1507_" class="st0" d="M215.5,71h-9.7v-3.1l2.6-0.2v-8.8c0-2.4-0.7-3.1-3.1-3.1c-1.5,0-2.6,0.3-4.6,1.4v10.5
				l2.6,0.2V71h-9.8v-3.1l2.6-0.2v-12l-2.6-0.2v-3.1h7.1v2.4c1.7-1.6,3.9-2.7,6.9-2.7c3.9,0,5.3,1.2,5.3,5.7v9.9l2.6,0.2L215.5,71
				L215.5,71z"/>
			<path id="XMLID_978_" class="st0" d="M234.2,61.7c0,8-1.4,9.6-8.6,9.6s-8.6-1.6-8.6-9.6s1.4-9.6,8.6-9.6S234.2,53.7,234.2,61.7z
				 M221.3,61.7c0,5.4,0.5,6.1,4.2,6.1s4.3-0.7,4.3-6.1s-0.6-6.1-4.3-6.1C221.9,55.6,221.3,56.3,221.3,61.7z"/>
			<path id="XMLID_974_" class="st0" d="M245.2,71h-9.8v-3.1l2.6-0.2V48.2l-2.6-0.1v-3.2h7.1v22.7l2.6,0.2L245.2,71L245.2,71z"/>
			<path id="XMLID_971_" class="st0" d="M263.8,61.7c0,8-1.4,9.6-8.6,9.6c-7.2,0-8.6-1.6-8.6-9.6s1.4-9.6,8.6-9.6
				C262.4,52.1,263.8,53.7,263.8,61.7z M250.9,61.7c0,5.4,0.5,6.1,4.2,6.1s4.3-0.7,4.3-6.1s-0.6-6.1-4.3-6.1S250.9,56.3,250.9,61.7z
				"/>
			<path id="XMLID_968_" class="st0" d="M283.5,55.7v14.7c0,6.2-1.5,7.6-8.6,7.6c-6.6,0-7.8-1.3-7.8-5.8l4-0.2
				c0,2.1,0.6,2.8,3.7,2.8c3.6,0,4.2-1.1,4.2-4.4v-2.7c-1.9,2.2-3.3,2.7-6,2.7c-4.8,0-6.6-1.5-6.6-9.2c0-7.6,1.7-9.2,6.6-9.2
				c2.8,0,4.3,0.5,6,2.4v-2.1h4.5l0,0h2.6v3.1L283.5,55.7z M279,65.7v-8.9c-1.3-0.8-2.3-1-4.4-1c-3.2,0-3.9,0.7-3.9,5.5
				s0.7,5.5,3.9,5.5C276.7,66.7,277.7,66.5,279,65.7z"/>
			<path id="XMLID_965_" class="st0" d="M297.9,71h-9.7v-3.1l2.7-0.2v-12l-2.7-0.1v-3.2h7.1v15.3l2.6,0.2V71z M290.3,47.4
				c0-2,0.3-2.4,2.7-2.4c2.3,0,2.6,0.3,2.6,2.4c0,2-0.3,2.4-2.6,2.4C290.6,49.7,290.3,49.4,290.3,47.4z"/>
			<path id="XMLID_963_" class="st0" d="M315.8,58.4l-4.1,0.2c0-2.4-0.6-3.1-3.7-3.1c-3.4,0-3.9,0.8-3.9,6.2s0.5,6.2,3.9,6.2
				c3.2,0,3.7-0.6,3.7-3l4.1-0.2c0,5.3-1.1,6.6-7.9,6.6c-6.9,0-8.2-1.6-8.2-9.6s1.3-9.6,8.2-9.6C314.6,52.1,315.8,53.4,315.8,58.4z"
				/>
			<path id="XMLID_958_" class="st0" d="M337.4,71h-6.8l-0.2-2.7c-2.1,2.2-4,3-6.6,3c-4.1,0-5.8-2.3-5.8-5.4c0-3.3,1.3-5.7,9.4-5.7
				h2.9v-1.1c0-2.9-0.6-3.8-3.8-3.8c-3,0-3.5,0.7-3.5,2.6l-4.1,0.2c0-4.5,1.4-6,7.8-6c6.6,0,8.1,1.5,8.1,7v8.6l2.6,0.1V71z
				 M325.1,68c2,0,3.4-0.7,5.2-2.4v-2.8H328c-5,0-5.7,1.2-5.7,2.9C322.3,66.9,323,68,325.1,68z"/>
			<path id="XMLID_956_" class="st0" d="M349.3,71h-9.8v-3.1l2.6-0.2V48.2l-2.6-0.1v-3.2h7.1v22.7l2.6,0.2L349.3,71L349.3,71z"/>
			<path id="XMLID_642_" class="st0" d="M133.4,80.6v14.8c-0.1,6.6-1.4,8.1-8.7,8.1c-7.4,0-8.7-1.5-8.7-8.1V80.6l-3.9-0.1V79h9.8
				v1.5l-3.9,0.1v14.7c0,5.6,0.9,6.5,6.7,6.5c5.8,0,6.7-0.9,6.7-6.5V80.6l-3.8-0.1V79h9.8v1.5L133.4,80.6z"/>
			<path id="XMLID_640_" class="st0" d="M159.6,103.3h-9v-1.4l3.5-0.1V90.4c0-2.6-1.1-3.7-3.9-3.7c-2.2,0-4.1,0.6-7,2.5v12.6
				l3.5,0.1v1.4h-9v-1.4l3.5-0.1V86.7l-3.5-0.1v-1.5h5.5v2.8c2.6-2,4.8-3.1,7.8-3.1c3.6,0,5.1,1.4,5.1,5.1v11.8l3.5,0.1L159.6,103.3
				L159.6,103.3z"/>
			<path id="XMLID_637_" class="st0" d="M170.3,103.3h-9v-1.4l3.5-0.1v-15l-3.5-0.2v-1.5h5.5v16.7l3.5,0.1V103.3z M164.1,79.2
				c0-1.3,0.2-1.6,1.7-1.6c1.4,0,1.6,0.3,1.6,1.6c0,1.3-0.2,1.6-1.6,1.6C164.3,80.7,164.1,80.5,164.1,79.2z"/>
			<path id="XMLID_635_" class="st0" d="M189.5,86.6l-6.8,16.7h-2l-6.8-16.7l-3-0.2V85h8.3v1.4l-3.3,0.1l4.5,11.3
				c0.5,1.3,0.9,2.4,1.2,3.5h0.2c0.3-1.1,0.7-2.2,1.2-3.5l4.6-11.3l-3.3-0.1V85h8.2v1.4L189.5,86.6z"/>
			<path id="XMLID_632_" class="st0" d="M206.6,98.3l1.9-0.1c0,4.1-1.2,5.3-7.2,5.3c-6.4,0-7.6-1.5-7.6-9.3s1.2-9.3,7.5-9.3
				s7.5,1.5,7.5,9.3c0,0.6-0.1,0.7-0.7,0.7h-12.3c0.1,6.1,0.9,7,5.7,7C205.9,101.9,206.6,101.1,206.6,98.3z M195.6,93.4h11.1
				c-0.1-6-1-6.9-5.6-6.9C196.6,86.5,195.7,87.4,195.6,93.4z"/>
			<path id="XMLID_65_" class="st0" d="M224.5,85v1.7h-1.4c-2,0-3.5,0.7-6.2,3.2v11.8l3.5,0.1v1.4h-9v-1.4l3.5-0.1v-15l-3.5-0.1
				v-1.5h5.5v3.5c2.5-2.8,4-3.7,6.2-3.7C223.7,84.9,224.2,84.9,224.5,85z"/>
			<path id="XMLID_63_" class="st0" d="M241.8,90l-2,0.1c0-3.1-0.7-3.6-5.2-3.6c-4.7,0-5.3,0.7-5.3,3c0,2.4,0.7,3.1,6.2,3.9
				c5.8,0.8,6.6,1.6,6.6,5.3c0,4-1.1,4.9-7.6,4.9c-6.4,0-7.4-0.9-7.4-5.5l2-0.1c0,3.3,0.7,4,5.4,4c4.8,0,5.6-0.6,5.6-3.2
				c0-2.4-0.5-3.2-5.4-3.9c-6.5-1-7.4-1.8-7.4-5.3c0-3.6,0.8-4.7,7.3-4.7C240.8,84.9,241.8,85.7,241.8,90z"/>
			<path id="XMLID_60_" class="st0" d="M253.6,103.3h-9v-1.4l3.5-0.1v-15l-3.5-0.2v-1.5h5.5v16.7l3.5,0.1V103.3z M247.4,79.2
				c0-1.3,0.2-1.6,1.7-1.6c1.4,0,1.6,0.3,1.6,1.6c0,1.3-0.2,1.6-1.6,1.6C247.6,80.7,247.4,80.5,247.4,79.2z"/>
			<path id="XMLID_58_" class="st0" d="M260.1,99.1c0,1.9,0.8,2.7,3.1,2.7h2.7v1.3c-0.8,0.2-1.7,0.3-3.2,0.3c-3.4,0-4.6-1.2-4.6-3.9
				V86.7l-3.6-0.1v-1.5h3.6v-3.7h1.9v3.7h5.8v1.5l-5.8,0.2v12.3H260.1z"/>
			<path id="XMLID_56_" class="st0" d="M286.7,86.6l-7,16.9c-2.3,5.6-4.3,6.8-7.7,6.8c-0.8,0-1.5-0.1-2.3-0.3v-1.5h2.1
				c2.7,0,4.1-0.9,6.1-5.5L271,86.6l-3-0.2V85h8.6v1.4l-3.5,0.1l4.7,11.2c0.5,1.3,0.9,2.4,1.1,3.5h0.1c0.3-1.1,0.6-2.2,1.2-3.5
				l4.5-11.2l-3.1-0.1V85h8v1.4L286.7,86.6z"/>
		</g>
	</g>
</g>
</svg>
