<svg xmlns="http://www.w3.org/2000/svg" viewBox="0 0 24 24"><path fill="url(#a)" d="M21.32 8.14c-.05-1-.2-1.68-.44-2.28A4.57 4.57 0 0 0 19.8 4.2a4.6 4.6 0 0 0-1.65-1.08 6.86 6.86 0 0 0-2.28-.43c-1-.05-1.32-.06-3.86-.06a61 61 0 0 0-3.86.06c-1 .04-1.68.2-2.28.43A4.55 4.55 0 0 0 4.21 4.2a4.6 4.6 0 0 0-1.08 1.66c-.23.6-.39 1.28-.43 2.28-.05 1-.06 1.32-.06 3.86 0 2.55 0 2.87.06 3.86.04 1 .2 1.68.43 2.28.24.61.56 1.14 1.08 1.66a4.52 4.52 0 0 0 1.66 1.08c.6.23 1.28.4 2.28.43 1 .05 1.32.06 3.86.06s2.86-.01 3.86-.06c1-.04 1.68-.2 2.27-.43a4.57 4.57 0 0 0 1.66-1.08 4.6 4.6 0 0 0 1.08-1.66c.23-.6.4-1.28.43-2.28.05-1 .06-1.32.06-3.86s0-2.87-.05-3.86Zm-1.68 7.65c-.05.9-.2 1.4-.33 1.7a3 3 0 0 1-.7 1.05 2.98 2.98 0 0 1-1.08.7 5.4 5.4 0 0 1-1.74.32c-1 .04-1.3.05-3.8.05s-2.8 0-3.8-.05a5.15 5.15 0 0 1-1.78-.33 2.92 2.92 0 0 1-1.08-.7 2.98 2.98 0 0 1-.7-1.09 5.23 5.23 0 0 1-.33-1.74 64.6 64.6 0 0 1-.06-3.79c0-2.5.01-2.8.06-3.79.04-.92.2-1.42.32-1.75.17-.44.38-.76.7-1.09a2.98 2.98 0 0 1 1.08-.7c.33-.12.82-.28 1.74-.32.98-.04 1.28-.05 3.78-.05s2.8 0 3.8.05c.9.04 1.4.2 1.73.32a3.06 3.06 0 0 1 1.8 1.8c.12.32.27.82.31 1.73.05 1 .06 1.3.06 3.8s-.01 2.8-.06 3.8Z"/><path fill="url(#b)" d="M12 7.18A4.81 4.81 0 0 0 7.2 12a4.81 4.81 0 1 0 9.63 0A4.81 4.81 0 0 0 12 7.18Zm0 7.94a3.12 3.12 0 1 1 0-6.24 3.12 3.12 0 0 1 0 6.24Z"/><path fill="#BC30A0" d="M17 8.12a1.13 1.13 0 1 0 0-2.25 1.13 1.13 0 0 0 0 2.25Z"/><path fill="url(#c)" d="M2.63 12c0 2.55.01 2.87.06 3.86.04 1 .2 1.68.43 2.28.24.61.56 1.14 1.08 1.66a4.56 4.56 0 0 0 1.66 1.08c.6.23 1.28.4 2.27.43 1 .05 1.32.06 3.86.06 2.55 0 2.87-.01 3.87-.06 1-.04 1.68-.2 2.27-.43a4.57 4.57 0 0 0 1.66-1.08 4.57 4.57 0 0 0 1.08-1.66c.23-.6.39-1.28.43-2.28.05-1 .06-1.32.06-3.86 0-2.55-.01-2.87-.06-3.86-.04-1-.2-1.68-.43-2.28a4.57 4.57 0 0 0-1.08-1.66 4.47 4.47 0 0 0-1.65-1.08 6.87 6.87 0 0 0-2.28-.43c-1-.05-1.32-.06-3.86-.06-2.55 0-2.87.01-3.86.06-1 .04-1.68.2-2.28.43-.6.24-1.14.56-1.66 1.08a4.6 4.6 0 0 0-1.08 1.66c-.23.6-.39 1.28-.43 2.28A61 61 0 0 0 2.63 12Zm1.69 0c0-2.5.01-2.8.06-3.79.04-.91.2-1.41.32-1.74.17-.43.37-.75.7-1.08a2.98 2.98 0 0 1 1.08-.7c.33-.13.83-.28 1.74-.33.99-.04 1.29-.05 3.79-.05s2.8 0 3.8.05c.95.04 1.45.2 1.78.33.44.17.75.37 1.08.7.34.3.53.6.7 1.01.14.33.3.83.33 1.74.05 1 .06 1.3.06 3.8s0 2.8-.05 3.8a5.4 5.4 0 0 1-.32 1.73 3.1 3.1 0 0 1-.7 1.1 2.98 2.98 0 0 1-1.08.7 5.4 5.4 0 0 1-1.75.32c-1 .04-1.3.05-3.8.05s-2.8 0-3.78-.05a5.15 5.15 0 0 1-1.74-.33 2.92 2.92 0 0 1-1.08-.7 2.98 2.98 0 0 1-.7-1.1 5.23 5.23 0 0 1-.32-1.74c-.05-1-.06-1.3-.06-3.8Z"/><defs><linearGradient id="a" x1="18.48" x2="4.92" y1="4.06" y2="20.67" gradientUnits="userSpaceOnUse"><stop stop-color="#AE3DAE"/><stop offset=".05" stop-color="#B23BA6"/><stop offset=".12" stop-color="#BD368E"/><stop offset=".21" stop-color="#CE2E69"/><stop offset=".32" stop-color="#E62335"/><stop offset=".42" stop-color="#FF1800"/></linearGradient><linearGradient id="b" x1="14.3" x2="9.37" y1="8.14" y2="16.41" gradientUnits="userSpaceOnUse"><stop stop-color="#E12F6A"/><stop offset=".17" stop-color="#EA3751"/><stop offset=".36" stop-color="#F13D3E"/><stop offset=".55" stop-color="#F64133"/><stop offset=".75" stop-color="#F7422F"/><stop offset=".8" stop-color="#F74C2F"/><stop offset=".87" stop-color="#F7652F"/><stop offset=".98" stop-color="#F78F2E"/><stop offset="1" stop-color="#F79A2E"/></linearGradient><linearGradient id="c" x1="16.25" x2="7.95" y1="1.86" y2="21.63" gradientUnits="userSpaceOnUse"><stop offset=".23" stop-color="#9E35A5" stop-opacity="0"/><stop offset=".45" stop-color="#D42F7F" stop-opacity=".5"/><stop offset=".75" stop-color="#F7772E"/><stop offset=".96" stop-color="#FEF780"/></linearGradient></defs></svg>