<svg xmlns="http://www.w3.org/2000/svg" viewBox="0 0 24 24"><g clip-path="url(#a)"><path fill="#7D2AE7" d="M12 24a12 12 0 1 0 0-24 12 12 0 0 0 0 24Z"/><path fill="url(#b)" d="M12 24a12 12 0 1 0 0-24 12 12 0 0 0 0 24Z"/><path fill="url(#c)" d="M12 24a12 12 0 1 0 0-24 12 12 0 0 0 0 24Z"/><path fill="url(#d)" d="M12 24a12 12 0 1 0 0-24 12 12 0 0 0 0 24Z"/><path fill="url(#e)" d="M12 24a12 12 0 1 0 0-24 12 12 0 0 0 0 24Z"/><path fill="#fff" d="M17.18 14.46c-.1 0-.19.08-.28.27-1.02 2.07-2.79 3.54-4.84 3.54-2.36 0-3.83-2.13-3.83-5.08 0-5 2.79-7.9 5.23-7.9 1.15 0 1.84.72 1.84 1.87 0 1.35-.77 2.07-.77 2.55 0 .22.14.35.4.35 1.07 0 2.32-1.23 2.32-2.96 0-1.67-1.46-2.9-3.9-2.9-4.05 0-7.65 3.75-7.65 8.93 0 4.02 2.3 6.67 5.83 6.67 3.76 0 5.93-3.73 5.93-4.95 0-.26-.14-.4-.28-.4Z"/></g><defs><radialGradient id="b" cx="0" cy="0" r="1" gradientTransform="rotate(-49.42 25.43 5.6) scale(18.562)" gradientUnits="userSpaceOnUse"><stop stop-color="#6420FF"/><stop offset="1" stop-color="#6420FF" stop-opacity="0"/></radialGradient><radialGradient id="c" cx="0" cy="0" r="1" gradientTransform="rotate(54.7 .54 7.5) scale(20.932)" gradientUnits="userSpaceOnUse"><stop stop-color="#00C4CC"/><stop offset="1" stop-color="#00C4CC" stop-opacity="0"/></radialGradient><radialGradient id="d" cx="0" cy="0" r="1" gradientTransform="matrix(12.92222 -13.01048 5.98368 5.94309 4.64 21.27)" gradientUnits="userSpaceOnUse"><stop stop-color="#6420FF"/><stop offset="1" stop-color="#6420FF" stop-opacity="0"/></radialGradient><radialGradient id="e" cx="0" cy="0" r="1" gradientTransform="rotate(66.52 2.44 9.1) scale(18.8951 31.6535)" gradientUnits="userSpaceOnUse"><stop stop-color="#00C4CC" stop-opacity=".73"/><stop offset="0" stop-color="#00C4CC"/><stop offset="1" stop-color="#00C4CC" stop-opacity="0"/></radialGradient><clipPath id="a"><path fill="#fff" d="M0 0h24v24H0z"/></clipPath></defs></svg>